<svg width="80" height="80" viewBox="0 0 80 80" fill="none" xmlns="http://www.w3.org/2000/svg">
<g clip-path="url(#clip0_2005_1323)">
<path d="M49.7238 46.6981V53.1627C49.7238 54.9615 48.272 56.4223 46.4843 56.4223H33.2942C31.5065 56.4223 30.0547 54.9615 30.0547 53.1627V46.6981H49.7238Z" fill="#1A1A1A"/>
<path d="M55.7285 46.6981C55.6001 47.7118 54.7409 48.4919 53.6989 48.4919H51.9014V46.6981H55.7285Z" fill="#1A1A1A"/>
<path d="M69.9157 46.6981C66.8194 60.3876 54.6318 70.6286 40.1034 70.6286C25.5799 70.6286 13.3873 60.3826 10.291 46.6981H28.0787V53.1627C28.0787 56.0596 30.4194 58.4099 33.2935 58.4099H46.4836C49.3626 58.4099 51.6984 56.0596 51.6984 53.1627V50.4795H53.6984C55.8268 50.4795 57.575 48.805 57.7132 46.6981H69.9157Z" fill="#1A1A1A"/>
<path d="M55.7187 35.7416H51.9014V33.9777H53.6989C54.7261 33.9777 55.5804 34.7478 55.7187 35.7416Z" fill="#1A1A1A"/>
<path d="M47.5609 30.7876C45.7683 30.7876 44.0448 30.1515 42.7214 29.0286C41.3288 29.7888 39.7633 30.1913 38.1386 30.1913C37.3535 30.1913 36.5781 30.0969 35.8226 29.913C34.4794 31.6472 32.3411 32.7006 30.0547 32.7155V35.7466H49.7238V30.4795C49.0374 30.6783 48.3115 30.7876 47.5609 30.7876Z" fill="#1A1A1A"/>
<path d="M33.3781 66.9168L30.7509 66.1466C30.5484 66.087 30.4003 65.9826 30.3065 65.8236C30.2077 65.6696 30.1879 65.4907 30.2472 65.287C30.3114 65.0634 30.4842 64.8795 30.7608 64.7354C30.9978 64.6112 31.2447 64.477 31.5114 64.328C31.6892 64.2286 31.9114 64.0944 32.1879 63.9255C32.4793 63.7466 32.7065 63.5926 32.8645 63.4485C33.2793 63.0907 33.5361 62.7429 33.6299 62.41C33.7435 62.0124 33.6299 61.764 33.2793 61.6596C33.1114 61.61 32.9386 61.6398 32.7558 61.7392C32.6028 61.8236 32.4398 61.8584 32.267 61.8336C32.0941 61.8137 31.9608 61.7441 31.8571 61.6249C31.7435 61.5006 31.704 61.3466 31.7287 61.1727C31.7534 60.9938 31.8521 60.8249 32.0151 60.6609C32.2225 60.482 32.4793 60.3727 32.7904 60.323C33.1015 60.2733 33.4324 60.2982 33.7879 60.4025C34.341 60.5665 34.7312 60.8497 34.9534 61.2572C35.1707 61.6696 35.2102 62.1019 35.0818 62.5491C34.7509 63.6969 33.7682 64.5913 32.1287 65.2323L33.7336 65.7044C33.9065 65.7541 34.0349 65.8534 34.1188 65.9975C34.2028 66.1416 34.2225 66.2957 34.1781 66.4497C34.1237 66.6336 34.02 66.7677 33.8719 66.8572C33.7139 66.9466 33.5509 66.9665 33.3781 66.9168Z" fill="#EBEBEB"/>
<path d="M36.425 61.9429C36.8496 61.4112 37.4077 61.1827 38.1089 61.2522C38.8151 61.3218 39.3237 61.6597 39.6348 62.2609C39.941 62.8572 40.0447 63.6622 39.9459 64.6708C39.8472 65.6845 39.5854 66.4547 39.1706 66.9814C38.7558 67.5081 38.1929 67.7317 37.4966 67.6622C36.7904 67.5926 36.2817 67.2547 35.9657 66.6535C35.6496 66.0522 35.541 65.2472 35.6398 64.2386C35.7385 63.2398 36.0003 62.4696 36.425 61.9429ZM37.62 66.41C37.8768 66.4348 38.0694 66.3056 38.2126 66.0274C38.3509 65.7441 38.4546 65.2472 38.5287 64.5317C38.5978 63.8162 38.5929 63.3044 38.5138 63.0013C38.4348 62.6982 38.2571 62.5342 37.9904 62.5044C37.7336 62.4795 37.5361 62.6087 37.3879 62.9019C37.2447 63.1901 37.1361 63.687 37.0669 64.3827C36.9336 65.6845 37.1212 66.3603 37.62 66.41Z" fill="#EBEBEB"/>
<path d="M44.2672 67.523L41.5413 67.7466C41.3339 67.7615 41.1561 67.7168 41.008 67.6074C40.8598 67.4981 40.7808 67.3342 40.761 67.1255C40.7413 66.8919 40.8351 66.6584 41.0425 66.4248C41.2154 66.2261 41.403 66.0074 41.6005 65.7739C41.7289 65.6199 41.8919 65.4112 42.0894 65.1578C42.3018 64.8894 42.4549 64.6559 42.5536 64.472C42.8154 63.9851 42.9289 63.5727 42.8993 63.2248C42.8647 62.8124 42.6672 62.6236 42.3067 62.6534C42.1339 62.6683 41.9808 62.7578 41.8425 62.9168C41.7289 63.0509 41.5857 63.1404 41.4178 63.1801C41.2499 63.2199 41.0968 63.205 40.9586 63.1304C40.8104 63.0509 40.7166 62.9267 40.6771 62.7528C40.6376 62.5789 40.6672 62.3851 40.766 62.1714C40.8944 61.9329 41.0968 61.7342 41.3684 61.5752C41.64 61.4161 41.961 61.3217 42.3265 61.2919C42.9042 61.2422 43.3684 61.3714 43.7191 61.6745C44.0647 61.9826 44.2623 62.3702 44.2968 62.8373C44.3956 64.0248 43.7931 65.2174 42.4894 66.405L44.1536 66.2658C44.3314 66.2509 44.4845 66.2956 44.6178 66.405C44.7512 66.5143 44.8203 66.6435 44.8351 66.8074C44.8499 66.9963 44.8005 67.1602 44.6919 67.2994C44.5882 67.4335 44.445 67.5081 44.2672 67.523Z" fill="#EBEBEB"/>
<path d="M45.353 61.7889C45.5604 61.1429 46.0048 60.7255 46.6814 60.5417C47.3678 60.3528 47.9604 60.487 48.4641 60.9392C48.9629 61.3864 49.3431 62.1019 49.6098 63.0758C49.8764 64.0597 49.9061 64.8696 49.7036 65.5106C49.5011 66.1516 49.0567 66.564 48.3801 66.7479C47.6937 66.9367 47.1011 66.8025 46.5925 66.3553C46.0838 65.9081 45.6987 65.1926 45.4369 64.2187C45.1703 63.2448 45.1456 62.4348 45.353 61.7889ZM48.0493 65.5305C48.2962 65.4609 48.4345 65.2721 48.4641 64.959C48.4937 64.646 48.4147 64.1441 48.2271 63.4485C48.0394 62.7528 47.8517 62.2808 47.669 62.0274C47.4863 61.774 47.2641 61.6795 47.0073 61.7541C46.7604 61.8236 46.6221 62.0174 46.5875 62.3404C46.553 62.6634 46.632 63.1653 46.8147 63.841C47.1555 65.0982 47.5653 65.6646 48.0493 65.5305Z" fill="#EBEBEB"/>
<path d="M57.7186 36.0347V46.4347C57.7186 46.5242 57.7137 46.6087 57.7137 46.6981H28.0791V35.7416H57.7087C57.7186 35.841 57.7186 35.9403 57.7186 36.0347Z" fill="#EBEBEB"/>
<path d="M49.7238 46.6981V53.1627C49.7238 54.9615 48.272 56.4223 46.4843 56.4223H33.2942C31.5065 56.4223 30.0547 54.9615 30.0547 53.1627V46.6981H49.7238Z" fill="#FCA500"/>
<path d="M50.7109 27.831V30.1018C50.3948 30.2509 50.0639 30.3702 49.7232 30.4745V35.7416H30.0541V32.7105C30.0294 32.7155 30.0047 32.7155 29.98 32.7155C29.6689 32.7155 29.3676 32.6956 29.0664 32.6608V30.6534C29.3627 30.7031 29.6639 30.7279 29.98 30.7279C30.0047 30.7279 30.0294 30.7279 30.0541 30.723C31.9207 30.7031 33.6491 29.754 34.5726 28.2385L34.9825 27.5677L35.7281 27.8112C36.5034 28.0695 37.3133 28.1987 38.138 28.1987C39.6442 28.1987 41.0862 27.7714 42.3109 26.9565L43.0022 26.4944L43.575 27.1056C44.5775 28.1838 46.0294 28.8 47.5602 28.8C48.3306 28.8 49.0664 28.6459 49.7232 28.3677C50.0738 28.2186 50.4047 28.0397 50.7109 27.831Z" fill="#FCA500"/>
<path d="M50.7112 27.831C50.41 28.0397 50.0791 28.2186 49.7235 28.3677V30.4745C50.0593 30.3751 50.3902 30.2509 50.7112 30.1018C51.0569 29.9428 51.3877 29.759 51.6989 29.5503V26.9416C51.4124 27.2745 51.0816 27.5726 50.7112 27.831ZM29.0668 30.6534C28.7211 30.5987 28.3902 30.5143 28.0791 30.4V32.472C28.4001 32.5565 28.731 32.6211 29.0668 32.6559C29.368 32.6956 29.6692 32.7105 29.9803 32.7105C30.005 32.7105 30.0297 32.7105 30.0544 32.7056V30.718C30.0297 30.723 30.005 30.723 29.9803 30.723C29.6692 30.7279 29.3631 30.7031 29.0668 30.6534Z" fill="#EBEBEB"/>
<path d="M40.104 9.10309C24.6373 9.10309 11.8126 20.7205 9.80273 35.7466H28.0793V32.477C28.4003 32.5615 28.7311 32.6261 29.0669 32.6609C29.3682 32.7006 29.6694 32.7155 29.9805 32.7155C30.0052 32.7155 30.0299 32.7155 30.0546 32.7105C32.341 32.6907 34.4793 31.6372 35.8225 29.9081C36.578 30.0919 37.3534 30.1863 38.1385 30.1863C39.7632 30.1863 41.3287 29.7888 42.7213 29.0236C44.0447 30.1466 45.7682 30.7826 47.5608 30.7826C48.3114 30.7826 49.0373 30.6733 49.7237 30.4695C50.0595 30.3702 50.3904 30.2459 50.7114 30.0969C51.0571 29.9379 51.3879 29.754 51.699 29.5453V31.99H53.699C55.8176 31.99 57.5608 33.6497 57.7089 35.7416H70.4003C68.3953 20.7205 55.5756 9.10309 40.104 9.10309ZM51.699 26.9416C51.4126 27.2795 51.0817 27.5776 50.7114 27.831C50.4101 28.0397 50.0793 28.2186 49.7237 28.3677C49.0669 28.6459 48.3311 28.8 47.5608 28.8C46.0299 28.8 44.578 28.1838 43.5756 27.1056L43.0027 26.4944L42.3114 26.9565C41.0867 27.7714 39.6447 28.1987 38.1385 28.1987C37.3138 28.1987 36.499 28.0695 35.7287 27.8112L34.983 27.5677L34.5731 28.2385C33.6497 29.754 31.9213 30.7031 30.0546 30.723C30.0299 30.7279 30.0052 30.7279 29.9805 30.7279C29.6694 30.7279 29.3632 30.7031 29.0669 30.6534C28.7213 30.5987 28.3904 30.5143 28.0793 30.4C26.1089 29.6894 24.7114 27.9205 24.7114 25.8534C24.7114 23.1702 27.0719 20.9838 29.9805 20.9838L30.0151 20.9888C30.0496 20.9938 30.0892 20.9938 30.1237 20.9938L30.9385 21.0186L31.1163 20.2136C31.7929 17.1379 34.7459 14.9018 38.1385 14.9018C40.9484 14.9018 43.5114 16.4373 44.6719 18.8124L45.0472 19.5776L45.8571 19.3192C46.4151 19.1453 46.9879 19.0509 47.5608 19.0509C50.4645 19.0509 52.8348 21.2373 52.8348 23.9254C52.8299 25.0633 52.4052 26.1068 51.699 26.9416Z" fill="#1A1A1A"/>
<path d="M35.8959 51.8112C35.3526 51.8112 34.9082 51.364 34.9082 50.8174V34.9267C34.9082 34.3801 35.3526 33.9329 35.8959 33.9329C36.4391 33.9329 36.8835 34.3801 36.8835 34.9267V50.8174C36.8835 51.364 36.4391 51.8112 35.8959 51.8112Z" fill="#EBEBEB"/>
<path d="M43.4027 51.8112C42.8595 51.8112 42.415 51.364 42.415 50.8174V34.9267C42.415 34.3801 42.8595 33.9329 43.4027 33.9329C43.9459 33.9329 44.3903 34.3801 44.3903 34.9267V50.8174C44.3903 51.364 43.9508 51.8112 43.4027 51.8112Z" fill="#EBEBEB"/>
<path d="M37.4324 52.8497C37.7237 52.8497 37.9756 52.949 38.1879 53.1428C38.3953 53.3416 38.504 53.595 38.504 53.8981V53.9975C38.504 54.082 38.4743 54.1515 38.42 54.1963C38.3608 54.2459 38.2966 54.2658 38.2225 54.2658H36.9978C37.062 54.4695 37.2348 54.5739 37.5163 54.5739C37.6151 54.5739 37.7188 54.559 37.8274 54.5242C37.862 54.5143 37.8966 54.5093 37.9262 54.5093C38.0546 54.5093 38.1385 54.5689 38.183 54.6882C38.1978 54.713 38.2027 54.7478 38.2027 54.7925C38.2027 54.9267 38.1336 55.0211 38.0003 55.0907C37.8669 55.1602 37.6842 55.195 37.4373 55.195C37.0768 55.195 36.7855 55.0857 36.5682 54.872C36.3509 54.6633 36.2373 54.3751 36.2373 54.0223C36.2373 53.6894 36.3509 53.4112 36.5731 53.1876C36.7904 52.964 37.0768 52.8497 37.4324 52.8497ZM36.9682 53.7739H37.7632C37.7632 53.6894 37.7287 53.6149 37.6645 53.5553C37.6003 53.4956 37.5114 53.4658 37.4027 53.4658C37.1904 53.4708 37.0472 53.5702 36.9682 53.7739Z" fill="#EBEBEB"/>
<path d="M39.7235 55.195C39.4469 55.195 39.2 55.1254 38.9827 54.9913C38.879 54.9267 38.8297 54.8372 38.8297 54.718C38.8297 54.6633 38.8445 54.6087 38.8741 54.559C38.9284 54.4646 39.0124 54.4149 39.126 54.4149C39.1852 54.4149 39.2543 54.4298 39.3334 54.4646C39.4864 54.5391 39.6346 54.5739 39.7778 54.5739C39.8914 54.5739 39.9457 54.5391 39.9457 54.4745C39.9457 54.4298 39.9062 54.395 39.8272 54.3702C39.7482 54.3404 39.6494 54.3155 39.5358 54.2857C39.4222 54.2559 39.3087 54.2211 39.1902 54.1764C39.0766 54.1317 38.9778 54.0571 38.8988 53.9577C38.8198 53.8534 38.7803 53.7292 38.7803 53.5751C38.7803 53.3515 38.8593 53.1727 39.0222 53.0435C39.1852 52.9143 39.3926 52.8497 39.6494 52.8497C39.9062 52.8497 40.1284 52.8944 40.3111 52.9789C40.4346 53.0385 40.4939 53.1279 40.4939 53.2522C40.4939 53.2969 40.484 53.3366 40.4642 53.3813C40.4099 53.5056 40.326 53.5652 40.2025 53.5652C40.1679 53.5652 40.1185 53.5553 40.0593 53.5404C39.9013 53.4956 39.7827 53.4708 39.6939 53.4708C39.6445 53.4708 39.605 53.4807 39.5704 53.5006C39.5358 53.5205 39.521 53.5453 39.521 53.5702C39.521 53.6099 39.5605 53.6447 39.6395 53.6695C39.7185 53.6944 39.8173 53.7242 39.9309 53.749C40.0445 53.7789 40.1581 53.8136 40.2766 53.8584C40.3901 53.9031 40.4889 53.9727 40.5679 54.072C40.6469 54.1714 40.6864 54.2956 40.6864 54.4447C40.6864 54.6733 40.6025 54.8571 40.4297 54.9913C40.2469 55.1254 40.0148 55.195 39.7235 55.195Z" fill="#EBEBEB"/>
<path d="M41.0674 54.2907V52.5863C41.0674 52.4919 41.102 52.4074 41.1711 52.3428C41.2402 52.2733 41.3291 52.2435 41.4328 52.2435C41.5365 52.2435 41.6254 52.2783 41.6945 52.3428C41.7637 52.4124 41.7982 52.4919 41.7982 52.5863V52.9093H42.0699C42.1637 52.9093 42.2427 52.9441 42.3118 53.0137C42.381 53.0832 42.4155 53.1627 42.4155 53.2571C42.4155 53.3515 42.381 53.431 42.3118 53.5006C42.2427 53.5702 42.1637 53.605 42.0699 53.605H41.7982V54.2509C41.7982 54.4149 41.8476 54.4994 41.9415 54.4994C41.9711 54.4994 42.0057 54.4944 42.0452 54.4894C42.055 54.4894 42.0649 54.4894 42.0797 54.4845C42.0945 54.4845 42.1044 54.4795 42.1143 54.4795C42.1242 54.4795 42.1291 54.4795 42.1291 54.4795C42.2526 54.4795 42.3415 54.5441 42.3958 54.6733C42.4155 54.718 42.4254 54.7627 42.4254 54.8074C42.4254 54.9416 42.3563 55.041 42.2131 55.1056C42.0649 55.1702 41.9118 55.205 41.7439 55.205C41.5069 55.205 41.3291 55.1304 41.2205 54.9814C41.1217 54.8224 41.0674 54.5938 41.0674 54.2907Z" fill="#EBEBEB"/>
<path d="M43.3533 54.1963C43.4817 54.1963 43.5903 54.241 43.6792 54.3354C43.7681 54.4298 43.8125 54.5391 43.8125 54.6584C43.8125 54.7975 43.7681 54.9168 43.6841 55.0162C43.5952 55.1155 43.4866 55.1652 43.3533 55.1652C43.2051 55.1652 43.0866 55.1155 42.9928 55.0211C42.8989 54.9218 42.8545 54.8025 42.8545 54.6634C42.8545 54.5391 42.9039 54.4348 42.9977 54.3404C43.0915 54.241 43.21 54.1963 43.3533 54.1963Z" fill="#EBEBEB"/>
<path d="M79.4026 38.6037C79.0717 37.913 78.4149 37.2969 77.7631 36.8596C77.1063 36.4174 76.5433 35.9354 76.3853 35.1901C76.0001 33.4112 75.6643 31.6124 75.4273 29.8037C75.368 29.3466 75.6495 28.7453 75.9557 28.3528C76.8248 27.2398 77.2544 26.0721 76.7063 24.6957C76.1631 23.3342 75.1211 22.6534 73.6742 22.5789C72.9334 22.5391 72.3162 22.2261 71.9013 21.6248C70.8791 20.1491 69.8816 18.6534 68.9087 17.1429C68.5779 16.6261 68.6026 16.0745 68.81 15.4534C69.3877 13.7193 68.9878 12.3677 67.7236 11.364C66.9433 10.7429 65.9606 10.4894 65.1112 10.8124C63.6939 11.3491 62.5334 10.9267 61.4174 10.1963C60.2174 9.41118 59.0371 8.56646 57.9557 7.62236C57.5705 7.28447 57.3433 6.58882 57.3137 6.03727C57.1705 3.26957 53.9705 1.75901 51.926 3.59255C50.7557 4.64596 49.4421 4.41242 48.1334 4.17888C46.884 3.95031 45.6495 3.61242 44.4248 3.24969C44.0692 3.14534 43.6544 2.86211 43.4964 2.54907C42.9038 1.38137 42.089 0.496894 40.8742 0H39.3285C38.1729 0.481988 37.452 1.36646 36.7655 2.40497C36.3952 2.97143 35.5507 3.32919 34.8445 3.54286C33.6742 3.90559 32.4594 4.11926 31.2445 4.31304C30.2322 4.47702 29.2445 4.33292 28.405 3.64224C26.0001 1.66957 22.9729 3.39876 22.9087 6.03727C22.8791 7.4236 21.7927 8.08447 20.8742 8.78012C19.8519 9.55031 18.7161 10.1665 17.6199 10.8323C16.9927 11.2149 16.3458 11.205 15.6445 10.9516C14.3655 10.4845 13.1458 10.6683 12.1482 11.6373C11.1803 12.5714 10.9236 13.7391 11.3038 15.046C11.6297 16.164 11.2939 17.1975 10.7458 18.1416C10.1532 19.1602 9.50627 20.159 8.78528 21.0981C8.14825 21.9379 7.28899 22.4646 6.18775 22.5888C4.92355 22.7379 3.97047 23.4385 3.49639 24.6211C3.0322 25.759 3.1359 26.9168 3.97047 27.8758C4.79022 28.8199 4.968 29.8733 4.72602 31.0509C4.44948 32.4075 4.17787 33.764 3.86676 35.1155C3.7038 35.846 3.31862 36.4124 2.59269 36.7354C1.28405 37.3317 0.523554 38.3702 0.493924 39.8161C0.464295 41.277 1.3038 42.2211 2.49392 42.9863C3.03713 43.3292 3.62479 43.9255 3.77787 44.5168C4.2322 46.2509 4.48899 48.0348 4.80997 49.8087C4.93343 50.4745 4.63713 50.9814 4.20257 51.4733C2.73096 53.1478 3.08652 55.6571 4.94331 56.7304C5.30874 56.9391 5.74825 57.123 6.15812 57.128C7.29392 57.1528 8.10874 57.6795 8.72108 58.5789C9.54578 59.7913 10.3606 61.0087 11.131 62.2559C11.526 62.8919 11.6297 63.5578 11.3729 64.3677C10.6915 66.5093 11.5902 68.3578 13.531 68.8497C14.2124 69.0236 14.9927 68.805 15.7236 68.8199C16.3902 68.8348 17.1754 68.7106 17.6989 69.0137C19.2692 69.923 20.7803 70.9565 22.2124 72.0696C22.6223 72.3925 22.8297 73.1329 22.8939 73.7143C23.0618 75.0907 23.6643 76.1242 24.9236 76.6708C26.1532 77.2025 27.368 77.0286 28.3606 76.1093C29.1705 75.354 30.1038 75.2199 31.0766 75.3988C32.6569 75.6919 34.2223 76.0745 35.7828 76.487C36.1334 76.5764 36.5482 76.8745 36.7112 77.1876C37.3087 78.3503 38.1186 79.2348 39.3334 79.7317H40.8791C42.0445 79.2596 42.805 78.4 43.4273 77.3168C43.6643 76.8994 44.2174 76.5217 44.6964 76.4124C46.4594 76 48.2421 75.6422 50.0347 75.4137C50.5334 75.3491 51.1902 75.6571 51.605 76C53.3631 77.446 55.7038 77.1876 56.805 75.3391C57.0124 74.9913 57.2594 74.5838 57.2495 74.2062C57.2001 72.5913 58.2371 71.7019 59.3631 70.9118C60.41 70.1814 61.5458 69.5702 62.6371 68.9044C63.2495 68.5317 63.8717 68.5416 64.5433 68.7752C65.852 69.2323 67.0816 69.0783 68.1038 68.0596C69.1013 67.0708 69.2939 65.8534 68.8791 64.5516C68.6371 63.7814 68.6421 63.046 69.0618 62.395C70.089 60.795 71.1408 59.2099 72.2915 57.6994C72.5581 57.3466 73.2445 57.2273 73.7581 57.1727C75.131 57.0286 76.1433 56.3925 76.6964 55.1304C77.2248 53.923 77.0223 52.7106 76.1828 51.7416C75.3581 50.7876 75.2643 49.7739 75.5063 48.636C75.7878 47.3093 76.0643 45.9727 76.3408 44.641C76.5186 43.7615 77.0717 43.2397 77.8618 42.8522C79.4569 42.0571 80.1779 40.2286 79.4026 38.6037ZM40.1038 72.6161C22.1581 72.6161 7.55565 57.923 7.55565 39.8658C7.55565 21.8037 22.1581 7.11553 40.1038 7.11553C58.0495 7.11553 72.6519 21.8037 72.6519 39.8658C72.6519 57.923 58.0495 72.6161 40.1038 72.6161Z" fill="#1A1A1A"/>
<path d="M70.677 39.6472C70.677 42.3752 70.4153 45.0286 69.9116 47.5776H10.2918C9.7881 45.0236 9.52637 42.3702 9.52637 39.6472C9.52637 38.0273 9.62019 36.4273 9.80291 34.8671V34.8621H70.4004C70.5832 36.4224 70.677 38.0224 70.677 39.6472Z" fill="#1A1A1A"/>
<path d="M15.3629 37.287C15.679 37.287 15.9555 37.282 16.1975 37.277H16.8889C17.9753 37.277 18.7654 37.5205 19.2642 38.0025C19.7531 38.4895 20 39.1056 20 39.851C20 40.5764 19.7383 41.1876 19.2148 41.6895C18.7012 42.1963 18.0099 42.4497 17.1457 42.4497C16.7654 42.4497 16.479 42.4398 16.2864 42.4149L16.2815 44.328C16.2815 44.5565 16.1975 44.7503 16.0296 44.9143C15.8617 45.0783 15.6494 45.1578 15.4025 45.1578C15.1506 45.1578 14.9432 45.0733 14.7753 44.9143C14.6074 44.7503 14.5234 44.5565 14.5234 44.328L14.5333 38.1267C14.5333 37.8982 14.6123 37.7044 14.7704 37.5404C14.9284 37.3814 15.1259 37.2969 15.3629 37.287ZM16.2963 38.9615L16.2913 40.7305C16.5975 40.7702 16.8691 40.7851 17.0963 40.7851C17.3975 40.7851 17.6444 40.7056 17.837 40.5466C18.0296 40.3876 18.1284 40.1491 18.1284 39.8311C18.1284 39.2348 17.7728 38.9317 17.0617 38.9317C17.0518 38.9317 17.0222 38.9317 16.9629 38.9367C16.9037 38.9416 16.8148 38.9416 16.6864 38.9466C16.5629 38.9615 16.4345 38.9615 16.2963 38.9615Z" fill="#EBEBEB"/>
<path d="M21.5354 44.3379L21.5452 38.0273C21.5452 37.7988 21.6292 37.605 21.7971 37.441C21.965 37.277 22.1773 37.1975 22.4243 37.1975C22.6712 37.1975 22.8835 37.282 23.0514 37.441C23.2193 37.605 23.3033 37.7988 23.3033 38.0273L23.2934 44.3379C23.2934 44.5665 23.2094 44.7602 23.0415 44.9242C22.8736 45.0882 22.6613 45.1677 22.4144 45.1677C22.1625 45.1677 21.9551 45.0832 21.7872 44.9242C21.6144 44.7652 21.5304 44.5665 21.5354 44.3379Z" fill="#EBEBEB"/>
<path d="M24.6221 38.0671C24.6221 37.8236 24.706 37.6199 24.869 37.451C25.0319 37.287 25.2394 37.2025 25.4813 37.2025C25.664 37.2025 25.8319 37.2522 25.9801 37.3566C26.1282 37.4609 26.2369 37.5951 26.2912 37.769L28.0542 42.4348L29.7431 37.7789C29.8023 37.61 29.906 37.4708 30.0591 37.3715C30.2073 37.2671 30.3752 37.2174 30.5579 37.2174C30.7801 37.2174 30.9677 37.2969 31.1258 37.451C31.2838 37.605 31.3628 37.7938 31.3628 38.0174C31.3628 38.082 31.3431 38.1814 31.3085 38.3056L28.9134 44.4323C28.7159 44.9342 28.4048 45.1826 27.99 45.1826C27.7628 45.1826 27.5801 45.128 27.4418 45.0137C27.3036 44.9044 27.1752 44.7056 27.0566 44.4174L24.6813 38.3901C24.6418 38.2758 24.6221 38.1715 24.6221 38.0671Z" fill="#EBEBEB"/>
<path d="M35.7774 45.2124C34.5724 45.2124 33.5947 44.8447 32.8391 44.1093C32.0687 43.3789 31.6885 42.405 31.6885 41.1975C31.6885 40.0547 32.0737 39.1006 32.8391 38.3305C33.5947 37.5702 34.5774 37.1926 35.7872 37.1926C36.9823 37.1926 37.965 37.5603 38.7354 38.2957C39.4959 39.0261 39.8761 40 39.8761 41.2075C39.8761 42.3752 39.486 43.3342 38.7156 44.0845C37.9305 44.8398 36.9527 45.2174 35.7774 45.2124ZM35.7922 38.8621C35.1453 38.8621 34.6169 39.0758 34.1971 39.5031C33.7774 39.9305 33.57 40.4969 33.565 41.2075C33.565 41.8634 33.7774 42.4199 34.2119 42.882C34.6366 43.3342 35.1601 43.5578 35.7823 43.5578C36.4885 43.5578 37.0317 43.3392 37.4218 42.8969C37.8119 42.4646 38.0045 41.9031 38.0095 41.2174C38.0095 40.5168 37.7971 39.9503 37.3724 39.523C36.9428 39.0808 36.4144 38.8621 35.7922 38.8621Z" fill="#EBEBEB"/>
<path d="M45.6591 39.0112H44.1727L44.1628 44.3826C44.1628 44.6112 44.0788 44.805 43.9109 44.969C43.743 45.1329 43.5307 45.2124 43.2838 45.2124C43.0319 45.2124 42.8245 45.128 42.6566 44.969C42.4887 44.8099 42.4048 44.6112 42.4048 44.3826L42.4146 39.0112H40.9282C40.701 39.0112 40.5085 38.9317 40.3455 38.7677C40.1825 38.6037 40.1035 38.4099 40.1035 38.1814C40.1035 37.9528 40.1825 37.759 40.3455 37.595C40.5085 37.4311 40.701 37.3516 40.9282 37.3516L45.6591 37.3615C45.8862 37.3615 46.0788 37.446 46.2418 37.605C46.4047 37.769 46.4838 37.9627 46.4838 38.1913C46.4838 38.4199 46.3998 38.6137 46.2418 38.7777C46.0788 38.9267 45.8862 39.0112 45.6591 39.0112Z" fill="#EBEBEB"/>
<path d="M49.3382 42.0373V43.4435L51.427 43.4485C51.6542 43.4485 51.8468 43.528 52.0098 43.692C52.1727 43.8559 52.2517 44.0497 52.2517 44.2783C52.2517 44.5069 52.1678 44.7007 52.0098 44.8646C51.8468 45.0286 51.6542 45.1081 51.427 45.1081L48.3999 45.1031C48.1727 45.1031 47.9801 45.0236 47.8172 44.8597C47.6542 44.6957 47.5752 44.5019 47.5752 44.2733L47.5851 38.1864C47.5851 37.9578 47.6641 37.764 47.827 37.6C47.99 37.4361 48.1826 37.3566 48.4098 37.3566L51.3233 37.3615C51.5505 37.3615 51.7431 37.446 51.9061 37.605C52.069 37.769 52.148 37.9628 52.148 38.1914C52.148 38.4199 52.0641 38.6137 51.9061 38.7777C51.7431 38.9417 51.5505 39.0212 51.3233 39.0212L49.3431 39.0162V40.3777L50.9925 40.3827C51.2196 40.3827 51.4122 40.4671 51.5752 40.6261C51.7382 40.7901 51.8172 40.9839 51.8172 41.2125C51.8172 41.441 51.7382 41.6348 51.5752 41.7988C51.4122 41.9628 51.2196 42.0423 50.9925 42.0423L49.3382 42.0373Z" fill="#EBEBEB"/>
<path d="M57.8964 44.5665L55.6692 41.4311L55.6643 44.3975C55.6643 44.6261 55.5803 44.8199 55.4124 44.9838C55.2445 45.1478 55.0322 45.2273 54.7853 45.2273C54.5334 45.2273 54.326 45.1429 54.1581 44.9838C53.9902 44.8199 53.9062 44.6261 53.9062 44.3975L53.9161 38.087C53.9161 37.8584 54.0001 37.6646 54.168 37.5006C54.3359 37.3366 54.5482 37.2571 54.7951 37.2571C55.0421 37.2571 55.2544 37.3416 55.4223 37.5006C55.5902 37.6646 55.6741 37.8584 55.6741 38.087L55.6692 40.7453L57.8865 37.759C58.1433 37.4261 58.4297 37.2621 58.7458 37.2621C58.9877 37.2621 59.1754 37.3267 59.3137 37.4609C59.447 37.595 59.5161 37.7689 59.5161 37.9826C59.5161 38.2062 59.4421 38.4099 59.2939 38.6037L57.4075 40.9491L59.5507 43.8311C59.6692 43.9702 59.7285 44.1491 59.7235 44.3627C59.7235 44.6062 59.6445 44.8149 59.4914 44.9838C59.3383 45.1528 59.1408 45.2373 58.8988 45.2373C58.7062 45.2373 58.5383 45.1876 58.3853 45.0882C58.2322 44.9789 58.0692 44.8099 57.8964 44.5665Z" fill="#EBEBEB"/>
<path d="M65.9258 44.6758L65.4764 43.5031L62.4295 43.4981L61.9653 44.6708C61.8172 45.0485 61.5406 45.2323 61.1406 45.2323C60.9283 45.2323 60.7456 45.1528 60.5974 44.9988C60.4493 44.8447 60.3703 44.6609 60.3752 44.4572C60.3752 44.3379 60.395 44.2335 60.4295 44.1491L62.9283 38.087C63.1505 37.5404 63.511 37.2671 64.0197 37.2671C64.5036 37.2671 64.8592 37.5354 65.0863 38.077L67.5505 44.0596C67.595 44.169 67.6147 44.2832 67.6147 44.3926C67.6147 44.6211 67.5308 44.8199 67.3678 44.9888C67.2048 45.1578 66.9974 45.2422 66.7555 45.2422C66.3456 45.2422 66.074 45.0534 65.9258 44.6758ZM63.0913 41.8385L64.8197 41.8435L63.9653 39.6522L63.0913 41.8385Z" fill="#EBEBEB"/>
</g>
<defs>
<clipPath id="clip0_2005_1323">
<rect width="80" height="80" fill="white"/>
</clipPath>
</defs>
</svg>
